<svg width="177" height="24" viewBox="0 0 177 24" fill="none" xmlns="http://www.w3.org/2000/svg">
<path d="M19.8098 9.19392C20.1871 8.06317 20.9146 7.09192 21.8636 6.40835C22.7925 5.73947 23.9275 5.34537 25.1489 5.34537C26.704 5.34537 28.1121 5.97585 29.1313 6.99505C30.1505 8.01425 30.781 9.42233 30.781 10.9774C30.781 11.2657 30.7551 11.5657 30.7054 11.874C30.6577 12.1707 30.5851 12.4636 30.4899 12.7501L28.0971 11.9591C28.1473 11.8079 28.1866 11.6473 28.2137 11.4786C28.2374 11.332 28.2497 11.1649 28.2497 10.9774C28.2497 10.121 27.9026 9.34572 27.3416 8.78468C26.7805 8.22364 26.0052 7.87659 25.1488 7.87659C24.4677 7.87659 23.8422 8.09103 23.3368 8.45497C22.8131 8.8321 22.4114 9.36908 22.2026 9.9947L19.8097 9.19374L19.8098 9.19392ZM18.6415 6.39305C18.0197 6.60023 17.4842 7.00168 17.106 7.52628C16.7385 8.03618 16.5217 8.66189 16.5214 9.33785C16.5211 10.1946 16.8694 10.9721 17.433 11.5361C17.9942 12.0978 18.7693 12.4453 19.6252 12.4457C19.7922 12.4458 19.9598 12.4319 20.1263 12.4051C20.2954 12.3779 20.456 12.3386 20.607 12.2886L21.3979 14.6814C21.1111 14.7765 20.8182 14.8492 20.5218 14.8968C20.2333 14.943 19.9337 14.9671 19.6251 14.967C18.0696 14.9663 16.6617 14.3353 15.6432 13.3158C14.6273 12.2988 13.9992 10.8924 14 9.33767C14.0004 8.1112 14.3931 6.97665 15.0592 6.05281C15.7423 5.10527 16.7156 4.37818 17.8505 4L18.6415 6.39287L18.6415 6.39305ZM25.2199 11.0011C26.0617 11.8446 26.6044 12.9307 26.7908 14.087C26.9554 15.1084 26.8394 16.1851 26.4031 17.1971V17.2183L26.2646 17.4946C25.5686 18.8843 24.3745 19.8605 23.0067 20.3154C21.7384 20.7373 20.3203 20.7092 19.012 20.1454H18.9907L18.7144 20.007C18.4379 19.8686 18.1799 19.7121 17.9414 19.5404C17.6908 19.36 17.4621 19.1654 17.2559 18.9596L19.0357 17.1699C19.156 17.29 19.2826 17.3985 19.4146 17.4936C19.5472 17.5892 19.6867 17.6744 19.832 17.7478L19.8415 17.7526C20.609 18.137 21.4601 18.1738 22.2157 17.9225C22.9675 17.6725 23.6245 17.1354 24.0086 16.3705L24.0101 16.3674C24.3128 15.763 24.3993 15.1052 24.2989 14.4824C24.1965 13.847 23.8963 13.248 23.4301 12.7808L25.2198 11.001L25.2199 11.0011Z" fill="black"/>
<path d="M40.976 18.192C40.4107 18.192 39.8827 18.1227 39.392 17.984C38.9013 17.8453 38.464 17.6533 38.08 17.408C37.696 17.152 37.376 16.8693 37.12 16.56C36.8747 16.2507 36.7147 15.9253 36.64 15.584L38.784 14.944C38.9227 15.3067 39.168 15.6213 39.52 15.888C39.872 16.144 40.3147 16.2773 40.848 16.288C41.4133 16.2987 41.872 16.176 42.224 15.92C42.5867 15.664 42.768 15.3333 42.768 14.928C42.768 14.576 42.624 14.2827 42.336 14.048C42.0587 13.8027 41.6747 13.616 41.184 13.488L39.728 13.104C39.184 12.9653 38.704 12.7573 38.288 12.48C37.872 12.192 37.5467 11.84 37.312 11.424C37.0773 11.008 36.96 10.5227 36.96 9.968C36.96 8.912 37.3067 8.09067 38 7.504C38.704 6.90667 39.696 6.608 40.976 6.608C41.6907 6.608 42.3147 6.71467 42.848 6.928C43.392 7.13067 43.8453 7.424 44.208 7.808C44.5707 8.192 44.848 8.64533 45.04 9.168L42.912 9.824C42.784 9.46133 42.5493 9.152 42.208 8.896C41.8667 8.64 41.4347 8.512 40.912 8.512C40.3787 8.512 39.9573 8.63467 39.648 8.88C39.3493 9.12533 39.2 9.472 39.2 9.92C39.2 10.272 39.3173 10.5493 39.552 10.752C39.7973 10.9547 40.128 11.1093 40.544 11.216L42.016 11.584C42.976 11.8187 43.7227 12.24 44.256 12.848C44.7893 13.456 45.056 14.1333 45.056 14.88C45.056 15.5413 44.896 16.1227 44.576 16.624C44.256 17.1147 43.792 17.4987 43.184 17.776C42.576 18.0533 41.84 18.192 40.976 18.192ZM50.3908 18.192C49.5801 18.192 48.8548 18.016 48.2148 17.664C47.5854 17.3013 47.0894 16.8053 46.7268 16.176C46.3748 15.5467 46.1988 14.8213 46.1988 14C46.1988 13.1787 46.3748 12.4533 46.7268 11.824C47.0788 11.1947 47.5694 10.704 48.1988 10.352C48.8281 9.98933 49.5481 9.808 50.3588 9.808C51.1801 9.808 51.9054 9.98933 52.5348 10.352C53.1641 10.704 53.6548 11.1947 54.0068 11.824C54.3588 12.4533 54.5347 13.1787 54.5347 14C54.5347 14.8213 54.3588 15.5467 54.0068 16.176C53.6548 16.8053 53.1641 17.3013 52.5348 17.664C51.9161 18.016 51.2014 18.192 50.3908 18.192ZM50.3908 16.24C50.7854 16.24 51.1321 16.144 51.4308 15.952C51.7294 15.76 51.9588 15.4987 52.1188 15.168C52.2894 14.8267 52.3748 14.4373 52.3748 14C52.3748 13.5627 52.2894 13.1787 52.1188 12.848C51.9481 12.5067 51.7081 12.24 51.3988 12.048C51.1001 11.856 50.7534 11.76 50.3588 11.76C49.9748 11.76 49.6281 11.856 49.3188 12.048C49.0201 12.24 48.7854 12.5067 48.6148 12.848C48.4441 13.1787 48.3588 13.5627 48.3588 14C48.3588 14.4373 48.4441 14.8267 48.6148 15.168C48.7854 15.4987 49.0254 15.76 49.3348 15.952C49.6441 16.144 49.9961 16.24 50.3908 16.24ZM57.4156 13.792C57.4156 12.928 57.581 12.2133 57.9116 11.648C58.253 11.0827 58.685 10.6613 59.2076 10.384C59.741 10.1067 60.2956 9.968 60.8716 9.968V12.016C60.381 12.016 59.917 12.0747 59.4796 12.192C59.053 12.3093 58.7063 12.5013 58.4396 12.768C58.173 13.0347 58.0396 13.376 58.0396 13.792H57.4156ZM55.9276 18V10H58.0396V18H55.9276ZM65.2861 18.192C64.4008 18.192 63.7288 17.9733 63.2701 17.536C62.8221 17.0987 62.5981 16.4747 62.5981 15.664V7.504H64.7101V15.2C64.7101 15.5413 64.7848 15.8027 64.9341 15.984C65.0835 16.1547 65.3021 16.24 65.5901 16.24C65.6968 16.24 65.8141 16.2187 65.9421 16.176C66.0701 16.1227 66.2035 16.048 66.3421 15.952L67.0781 17.536C66.8221 17.728 66.5341 17.8827 66.2141 18C65.9048 18.128 65.5955 18.192 65.2861 18.192ZM61.3021 11.792V10H66.7101V11.792H61.3021ZM72.5441 18V6.8H76.1281C77.2695 6.8 78.2775 7.04 79.1521 7.52C80.0375 8 80.7255 8.66133 81.2161 9.504C81.7175 10.336 81.9681 11.3013 81.9681 12.4C81.9681 13.488 81.7175 14.4533 81.2161 15.296C80.7255 16.1387 80.0375 16.8 79.1521 17.28C78.2775 17.76 77.2695 18 76.1281 18H72.5441ZM74.7361 15.952H76.1281C76.6401 15.952 77.1148 15.8613 77.5521 15.68C77.9895 15.4987 78.3681 15.248 78.6881 14.928C79.0188 14.608 79.2748 14.2347 79.4561 13.808C79.6375 13.3707 79.7281 12.9013 79.7281 12.4C79.7281 11.8987 79.6375 11.4347 79.4561 11.008C79.2748 10.5707 79.0188 10.192 78.6881 9.872C78.3681 9.552 77.9895 9.30133 77.5521 9.12C77.1148 8.93867 76.6401 8.848 76.1281 8.848H74.7361V15.952ZM87.2033 18.192C86.3926 18.192 85.6673 18.016 85.0273 17.664C84.3979 17.3013 83.9019 16.8053 83.5393 16.176C83.1873 15.5467 83.0113 14.8213 83.0113 14C83.0113 13.1787 83.1873 12.4533 83.5393 11.824C83.8913 11.1947 84.3819 10.704 85.0113 10.352C85.6406 9.98933 86.3606 9.808 87.1713 9.808C87.9926 9.808 88.7179 9.98933 89.3473 10.352C89.9766 10.704 90.4673 11.1947 90.8193 11.824C91.1713 12.4533 91.3472 13.1787 91.3472 14C91.3472 14.8213 91.1713 15.5467 90.8193 16.176C90.4673 16.8053 89.9766 17.3013 89.3473 17.664C88.7286 18.016 88.0139 18.192 87.2033 18.192ZM87.2033 16.24C87.5979 16.24 87.9446 16.144 88.2433 15.952C88.5419 15.76 88.7713 15.4987 88.9313 15.168C89.1019 14.8267 89.1873 14.4373 89.1873 14C89.1873 13.5627 89.1019 13.1787 88.9313 12.848C88.7606 12.5067 88.5206 12.24 88.2113 12.048C87.9126 11.856 87.5659 11.76 87.1713 11.76C86.7873 11.76 86.4406 11.856 86.1313 12.048C85.8326 12.24 85.5979 12.5067 85.4273 12.848C85.2566 13.1787 85.1713 13.5627 85.1713 14C85.1713 14.4373 85.2566 14.8267 85.4273 15.168C85.5979 15.4987 85.8379 15.76 86.1473 15.952C86.4566 16.144 86.8086 16.24 87.2033 16.24ZM96.5961 18.192C95.7641 18.192 95.0228 18.016 94.3721 17.664C93.7215 17.3013 93.2148 16.8053 92.8521 16.176C92.4895 15.536 92.3081 14.8107 92.3081 14C92.3081 13.1787 92.4895 12.4533 92.8521 11.824C93.2148 11.1947 93.7161 10.704 94.3561 10.352C94.9961 9.98933 95.7321 9.808 96.5641 9.808C97.3641 9.808 98.0948 10.0053 98.7561 10.4C99.4175 10.7947 99.8975 11.3653 100.196 12.112L98.2121 12.816C98.0628 12.5067 97.8281 12.2613 97.5081 12.08C97.1988 11.888 96.8521 11.792 96.4681 11.792C96.0735 11.792 95.7268 11.888 95.4281 12.08C95.1295 12.2613 94.8948 12.5173 94.7241 12.848C94.5535 13.1787 94.4681 13.5627 94.4681 14C94.4681 14.4373 94.5535 14.8213 94.7241 15.152C94.8948 15.472 95.1348 15.728 95.4441 15.92C95.7535 16.112 96.1055 16.208 96.5001 16.208C96.8841 16.208 97.2308 16.1067 97.5401 15.904C97.8601 15.7013 98.0948 15.4347 98.2441 15.104L100.244 15.808C99.9348 16.5653 99.4495 17.152 98.7881 17.568C98.1375 17.984 97.4068 18.192 96.5961 18.192ZM104.467 18.192C103.955 18.192 103.475 18.1173 103.027 17.968C102.579 17.808 102.184 17.584 101.843 17.296C101.501 16.9973 101.235 16.6347 101.043 16.208L102.851 15.376C103.011 15.632 103.229 15.856 103.507 16.048C103.784 16.2293 104.104 16.32 104.467 16.32C104.819 16.32 105.091 16.272 105.283 16.176C105.475 16.0693 105.571 15.92 105.571 15.728C105.571 15.536 105.491 15.3973 105.331 15.312C105.181 15.216 104.973 15.136 104.707 15.072L103.971 14.88C103.203 14.6773 102.595 14.3573 102.147 13.92C101.709 13.472 101.491 12.96 101.491 12.384C101.491 11.5627 101.752 10.928 102.275 10.48C102.808 10.032 103.56 9.808 104.531 9.808C105.032 9.808 105.496 9.88267 105.923 10.032C106.36 10.1813 106.733 10.3893 107.043 10.656C107.352 10.9227 107.565 11.232 107.683 11.584L105.939 12.384C105.864 12.1707 105.683 12 105.395 11.872C105.107 11.7333 104.819 11.664 104.531 11.664C104.243 11.664 104.019 11.728 103.859 11.856C103.709 11.9733 103.635 12.1387 103.635 12.352C103.635 12.4907 103.709 12.608 103.859 12.704C104.008 12.7893 104.221 12.864 104.499 12.928L105.539 13.184C106.061 13.312 106.477 13.52 106.787 13.808C107.107 14.0853 107.336 14.4 107.475 14.752C107.624 15.0933 107.699 15.4293 107.699 15.76C107.699 16.24 107.555 16.6667 107.267 17.04C106.989 17.4027 106.605 17.6853 106.115 17.888C105.635 18.0907 105.085 18.192 104.467 18.192Z" fill="black"/>
</svg>
